<svg width="31" height="30" viewBox="0 0 31 30" fill="none" xmlns="http://www.w3.org/2000/svg">
    <path d="M25.3853 5H5.38525C4.72221 5 4.08633 5.26339 3.61749 5.73223C3.14865 6.20107 2.88525 6.83696 2.88525 7.5V22.5C2.88525 23.163 3.14865 23.7989 3.61749 24.2678C4.08633 24.7366 4.72221 25 5.38525 25H25.3853C26.0483 25 26.6842 24.7366 27.153 24.2678C27.6219 23.7989 27.8853 23.163 27.8853 22.5V7.5C27.8853 6.83696 27.6219 6.20107 27.153 5.73223C26.6842 5.26339 26.0483 5 25.3853 5ZM25.3853 10.875L15.3853 17.5425L5.38525 10.875V7.87125L15.3853 14.5375L25.3853 7.87125V10.875Z" fill="#C8B936" />
</svg>
    