<svg width="36" height="36" viewBox="0 0 36 36" fill="none" xmlns="http://www.w3.org/2000/svg">
    <path d="M26.8057 3.36816H9.30575C8.91897 3.36816 8.54804 3.52181 8.27455 3.7953C8.00106 4.06879 7.84741 4.43972 7.84741 4.8265V17.9515L15.1391 12.1182V16.4932H23.8891V19.4098H15.1391V23.7848L7.84741 17.9515V31.0765C7.84741 31.4633 8.00106 31.8342 8.27455 32.1077C8.54804 32.3812 8.91897 32.5348 9.30575 32.5348H26.8057C27.1925 32.5348 27.5635 32.3812 27.8369 32.1077C28.1104 31.8342 28.2641 31.4633 28.2641 31.0765V4.8265C28.2641 4.43972 28.1104 4.06879 27.8369 3.7953C27.5635 3.52181 27.1925 3.36816 26.8057 3.36816Z" fill="#C8B936" />
</svg>
    