<svg width="31" height="31" viewBox="0 0 31 31" fill="none" xmlns="http://www.w3.org/2000/svg">
    <path d="M27.564 15.9968L16.314 3.49682C15.8402 2.96932 14.9302 2.96932 14.4565 3.49682L3.20648 15.9968C3.04455 16.1763 2.93826 16.399 2.90054 16.6378C2.86281 16.8766 2.89528 17.1211 2.99398 17.3418C3.19398 17.7931 3.64148 18.0831 4.13523 18.0831H6.63523V26.8331C6.63523 27.1646 6.76693 27.4825 7.00135 27.717C7.23577 27.9514 7.55371 28.0831 7.88523 28.0831H11.6352C11.9668 28.0831 12.2847 27.9514 12.5191 27.717C12.7535 27.4825 12.8852 27.1646 12.8852 26.8331V21.8331H17.8852V26.8331C17.8852 27.1646 18.0169 27.4825 18.2514 27.717C18.4858 27.9514 18.8037 28.0831 19.1352 28.0831H22.8852C23.2168 28.0831 23.5347 27.9514 23.7691 27.717C24.0035 27.4825 24.1352 27.1646 24.1352 26.8331V18.0831H26.6352C26.8773 18.0841 27.1145 18.0147 27.3178 17.8833C27.5211 17.7518 27.6818 17.5641 27.7802 17.3429C27.8787 17.1218 27.9107 16.8767 27.8723 16.6377C27.8339 16.3987 27.7268 16.176 27.564 15.9968Z" fill="#C8B936"/>
</svg>
    