<svg width="42" height="53" viewBox="0 0 42 53" fill="none" xmlns="http://www.w3.org/2000/svg">
    <path d="M32.9119 16.5362L29.8977 15.2651C29.8977 15.2651 31.2732 10.5162 29.0215 7.6108C26.7697 4.70537 25.0967 4.09725 22.4818 3.51616C19.8669 2.93507 17.5495 3.64334 15.4067 4.44233C13.264 5.24133 11.1939 7.12986 11.1939 7.12986L9.26904 4.87816C17.3769 -1.68531 26.164 0.570365 30.0525 4.44233C31.4038 5.78793 34.1466 10.5074 32.9119 16.5362Z" fill="#C8B936"/>
    <rect x="36.1804" y="10.7616" width="5.15716" height="2.61489" fill="#C8B936"/>
    <rect x="0.334717" y="10.7616" width="26.5847" height="2.61489" fill="#C8B936"/>
    <rect x="18.4573" y="13.3766" width="2.57858" height="5.33873" fill="#C8B936"/>
    <rect x="18.4573" y="31.4265" width="2.54228" height="21.137" fill="#C8B936"/>
    <path d="M9.55946 34.913L7.16236 33.6055C4.3731 42.2347 10.5036 47.0553 13.9176 48.3869L15.116 45.6268C14.3776 45.312 12.4503 44.2249 10.6489 42.3945C8.84757 40.564 9.17205 36.6441 9.55946 34.913Z" fill="#C8B936"/>
    <path d="M26.8468 31.027C34.1394 38.2905 28.239 43.9319 24.3772 45.8447L25.3214 48.3869C28.8079 47.6969 33.2024 44.4283 33.2024 38.1453C33.2024 33.1189 30.0064 29.5743 28.59 28.5574C25.3214 25.7246 19.2927 22.6739 17.1862 21.5117C15.1584 20.3929 12.017 17.8678 10.7943 16.5361L8.4336 18.1704C14.2081 25.3251 20.6424 24.8473 26.8468 31.027Z" fill="#C8B936"/>
</svg>
    