<svg width="820" height="820" viewBox="0 0 820 820" fill="none" xmlns="http://www.w3.org/2000/svg">
<rect width="820" height="820" rx="410" fill="white"/>
<path d="M448.71 258.794C481.27 258.794 513.819 258.794 546.379 258.794C557.295 258.794 568.211 258.849 579.116 258.717C583.225 258.673 585.091 259.979 585.047 264.414C584.858 281.965 584.824 299.517 585.069 317.068C585.147 322.612 581.937 322.721 577.928 322.71C550.554 322.655 523.169 322.612 495.795 322.666C482.114 322.688 468.421 322.963 454.74 323.084C447.954 323.149 441.613 325.004 435.428 327.584C418.926 334.444 417.993 357.1 424.867 368.384C429.931 376.704 436.805 383.202 444.501 388.998C468.077 406.725 493.419 421.84 518.172 437.833C534.741 448.535 551.109 459.445 565.124 473.507C598.45 506.952 604.88 546.128 590.066 589.375C582.304 612.031 565.113 625.949 542.547 633.622C531.098 637.507 519.271 639.352 507.211 640.164C460.659 643.314 413.906 644.203 367.576 640.197C324.444 636.465 288.785 617.333 269.229 576.039C257.091 550.419 252.783 523.088 250.306 495.306C248.141 471.048 248.374 446.724 248.396 422.411C248.418 392.247 248.396 362.072 248.396 331.909C248.396 326.025 245.501 323.076 239.712 323.062C235.647 323.062 231.572 322.952 227.507 323.073C224.043 323.171 222.41 321.799 222.421 318.265C222.488 300.538 222.488 282.799 222.41 265.061C222.399 261.648 223.732 260.001 227.296 260.045C231.916 260.111 236.547 259.946 241.167 259.946C248.418 259.946 248.429 259.957 248.429 252.57C248.429 229.903 248.418 207.226 248.429 184.559C248.429 177.293 248.463 177.249 255.77 177.238C272.416 177.216 289.074 177.402 305.721 177.128C310.884 177.04 312.461 178.796 312.428 183.725C312.261 206.765 312.528 229.805 312.261 252.833C312.228 255.6 312.617 257.411 313.738 258.53C315.571 260.363 318.602 260.089 319.446 260.034C325.254 259.639 376.86 259.244 448.732 258.794H448.71ZM313.783 485.833C315.482 506.129 318.203 526.249 328.719 544.327C339.846 563.438 356.326 576.478 378.714 577.169C418.615 578.41 458.582 577.444 498.516 577.279C505.412 577.246 512.064 575.622 518.427 572.91C524.757 570.221 529.321 565.765 530.998 559.19C535.429 541.803 531.664 526.534 517.661 514.548C506.034 504.603 493.141 496.36 479.948 488.588C451.031 471.553 422.279 454.319 397.848 431.016C385.266 419.019 374.172 405.891 365.755 390.699C355.394 371.984 354.372 352.062 358.325 331.579C359.98 323.029 360.069 323.04 351.085 323.04C340.546 323.04 329.996 323.347 319.469 322.941C313.772 322.721 312.184 324.719 312.239 330.163C312.484 353.917 312.339 377.681 312.339 405.726C312.683 429.567 311.429 457.733 313.783 485.822V485.833Z" fill="#FCA311"/>
</svg>
