<svg width="30" height="36" viewBox="0 0 30 36" fill="none" xmlns="http://www.w3.org/2000/svg">
<g clip-path="url(#clip0_111_27)">
<path d="M18.2794 6.31212C20.7962 6.31212 23.3121 6.31212 25.8288 6.31212C26.6726 6.31212 27.5164 6.31636 28.3593 6.30618C28.6769 6.30279 28.8211 6.40375 28.8176 6.74652C28.8031 8.10317 28.8005 9.45982 28.8194 10.8165C28.8254 11.2449 28.5773 11.2534 28.2674 11.2526C26.1516 11.2483 24.0348 11.2449 21.9189 11.2492C20.8614 11.2509 19.8031 11.2721 18.7455 11.2814C18.2211 11.2865 17.731 11.4299 17.2528 11.6293C15.9773 12.1595 15.9052 13.9107 16.4365 14.7829C16.8279 15.426 17.3593 15.9283 17.9541 16.3763C19.7764 17.7465 21.7352 18.9148 23.6485 20.151C24.9292 20.9782 26.1945 21.8215 27.2777 22.9084C29.8537 25.4936 30.3507 28.5216 29.2056 31.8645C28.6056 33.6157 27.2769 34.6915 25.5327 35.2845C24.6477 35.5849 23.7335 35.7274 22.8013 35.7902C19.2031 36.0337 15.5893 36.1024 12.0082 35.7927C8.6743 35.5043 5.91808 34.0254 4.40649 30.8336C3.46829 28.8534 3.13524 26.7408 2.94383 24.5934C2.77644 22.7183 2.79447 20.8382 2.79619 18.9589C2.7979 16.6274 2.79619 14.2951 2.79619 11.9636C2.79619 11.5088 2.57244 11.2808 2.12494 11.2797C1.81078 11.2797 1.49576 11.2712 1.18159 11.2806C0.913783 11.2882 0.787603 11.1821 0.788461 10.9089C0.793612 9.53872 0.793612 8.16765 0.787603 6.79658C0.786745 6.53271 0.889749 6.40545 1.16529 6.40884C1.52237 6.41393 1.88031 6.4012 2.23739 6.4012C2.7979 6.4012 2.79876 6.40205 2.79876 5.83106C2.79876 4.07903 2.7979 2.32617 2.79876 0.574144C2.79876 0.0124793 2.80134 0.00908556 3.36614 0.00823712C4.65284 0.00654025 5.94039 0.0209637 7.22709 -0.000247239C7.62623 -0.00703473 7.74812 0.128715 7.74554 0.509663C7.73267 2.29053 7.75327 4.0714 7.73267 5.85142C7.73009 6.06522 7.76013 6.20522 7.84683 6.29176C7.98846 6.43345 8.2228 6.41223 8.28803 6.40799C8.73696 6.37745 12.7258 6.34691 18.2812 6.31212H18.2794ZM7.85026 23.8612C7.98159 25.4299 8.1919 26.9851 9.00477 28.3825C9.86486 29.8596 11.1387 30.8676 12.8691 30.921C15.9533 31.0169 19.0425 30.9422 22.1292 30.9295C22.6623 30.927 23.1764 30.8014 23.6683 30.5918C24.1576 30.384 24.5103 30.0395 24.64 29.5313C24.9825 28.1874 24.6915 27.0072 23.6091 26.0807C22.7104 25.312 21.7138 24.6748 20.694 24.0741C18.4588 22.7574 16.2365 21.4253 14.3481 19.6241C13.3756 18.6967 12.5181 17.682 11.8674 16.5078C11.0666 15.0612 10.9876 13.5213 11.2932 11.9381C11.4211 11.2772 11.4279 11.278 10.7335 11.278C9.91893 11.278 9.10348 11.3018 8.28975 11.2704C7.84941 11.2534 7.72666 11.4078 7.73095 11.8287C7.74983 13.6647 7.73868 15.5015 7.73868 17.6693C7.76529 19.5121 7.66829 21.6892 7.85026 23.8603V23.8612Z" fill="#FCA311"/>
</g>
<defs>
<clipPath id="clip0_111_27">
<rect width="29" height="36" fill="white" transform="translate(0.787598)"/>
</clipPath>
</defs>
</svg>
